<svg xmlns="http://www.w3.org/2000/svg" width="136.0645" height="55.1304" viewBox="0 0 136.0645 55.1304"><path d="M38.291.1563h8.8779V2.1807H40.61V5.1748h5.8838V7.1992H40.61v3.0459H47.376V12.27H38.291Z"></path><path d="M52.6367,9.5352a2.9428,2.9428,0,0,0,2.1807.8135,2.8569,2.8569,0,0,0,2.1543-.8135,3.1,3.1,0,0,0,.7871-2.25V.1563h2.3193V7.2852a5.6178,5.6178,0,0,1-.6406,2.7432,4.3335,4.3335,0,0,1-1.8252,1.791,5.9214,5.9214,0,0,1-2.7949.623,6.0587,6.0587,0,0,1-2.8291-.623,4.3071,4.3071,0,0,1-1.8437-1.791,5.6176,5.6176,0,0,1-.64-2.7432V.1563h2.3184V7.2852A3.0411,3.0411,0,0,0,52.6367,9.5352Z"></path><path d="M70.3926,12.27l-2.0947-3.582a3.7937,3.7937,0,0,1-.4326.0176H65.1318V12.27H62.8125V.1563h5.0527A5.45,5.45,0,0,1,71.5,1.2461a3.8245,3.8245,0,0,1,1.28,3.08A4.5567,4.5567,0,0,1,72.166,6.749a3.7684,3.7684,0,0,1-1.791,1.5059L73.04,12.27ZM65.1318,6.6631h2.7334a3.0847,3.0847,0,0,0,2.0078-.5713,2.0738,2.0738,0,0,0,.6924-1.6963,2.0009,2.0009,0,0,0-.6924-1.6611,3.1544,3.1544,0,0,0-2.0078-.5537H65.1318Z"></path><path d="M84.1064.8135a6.0423,6.0423,0,0,1,3.1758,5.3818,6.076,6.076,0,0,1-.8477,3.1582,6.1656,6.1656,0,0,1-2.3281,2.2588,6.8926,6.8926,0,0,1-6.5586,0,6.1559,6.1559,0,0,1-2.3271-2.2588,6.0676,6.0676,0,0,1-.8486-3.1582A6.0473,6.0473,0,0,1,77.5479.8135a7.0165,7.0165,0,0,1,6.5586,0ZM78.8027,2.6221a4.0675,4.0675,0,0,0-2.06,3.5732,4.0367,4.0367,0,0,0,.5625,2.0938,4.184,4.184,0,0,0,1.5059,1.5059,3.9749,3.9749,0,0,0,2.0508.5537,3.9018,3.9018,0,0,0,2.0244-.5537,4.0688,4.0688,0,0,0,1.4795-1.5059,4.1368,4.1368,0,0,0,.5449-2.0937,4.0917,4.0917,0,0,0-.5449-2.085,4.0212,4.0212,0,0,0-1.4795-1.4883,3.95,3.95,0,0,0-2.0244-.5449A4.0715,4.0715,0,0,0,78.8027,2.6221Z"></path><path d="M97.83,1.2461a3.863,3.863,0,0,1,1.2539,3.08A4.16,4.16,0,0,1,97.83,7.5537,5.0459,5.0459,0,0,1,94.291,8.7051H91.6436V12.27H89.3242V.1563H94.291A5.2305,5.2305,0,0,1,97.83,1.2461ZM96.1855,6.0918a2.0586,2.0586,0,0,0,.7012-1.6963,1.9867,1.9867,0,0,0-.7012-1.6611A3.19,3.19,0,0,0,94.17,2.1807H91.6436V6.6631H94.17A3.1193,3.1193,0,0,0,96.1855,6.0918Z"></path><path d="M101.0049.1563h8.8779V2.1807h-6.5586V5.1748h5.8838V7.1992h-5.8838v3.0459H110.09V12.27h-9.085Z"></path><path d="M121.4072,12.27,120.335,9.708H114.416L113.3428,12.27h-2.4053L116.251.1563h2.4053L123.8994,12.27Zm-6.16-4.5518h4.2568l-2.1113-5.0869Z"></path><path d="M133.8154.1563h2.249V12.27h-2.1973l-6.23-8.3408V12.27H125.37V.1563h2.1973l6.248,8.3584Z"></path><path d="M46.58,21.6924a5.6611,5.6611,0,0,1,2.25,2.1543,6.074,6.074,0,0,1,.8135,3.1328,5.9712,5.9712,0,0,1-.8223,3.123,5.7613,5.7613,0,0,1-2.2754,2.1548,6.8992,6.8992,0,0,1-3.3057.7783H38.291V20.9229h5.0361A6.7841,6.7841,0,0,1,46.58,21.6924Zm-1.2021,8.791a3.6232,3.6232,0,0,0,1.3926-1.4189,4.4775,4.4775,0,0,0-.0176-4.1533,3.6717,3.6717,0,0,0-1.4277-1.4365,4.0816,4.0816,0,0,0-2.0332-.51H40.61v8.0293h2.7686A3.9468,3.9468,0,0,0,45.3779,30.4834Z"></path><path d="M51.668,20.9229h8.8779v2.0244H53.9873v2.9941h5.8838v2.0244H53.9873v3.0459h6.7656v2.0239H51.668Z"></path><path d="M68.8086,23.1553a5.7645,5.7645,0,0,0-1.7217-.3115,2.41,2.41,0,0,0-1.3154.3115.9749.9749,0,0,0-.4844.8652,1.14,1.14,0,0,0,.3369.8389,2.6525,2.6525,0,0,0,.8486.5537,13.3274,13.3274,0,0,0,1.3926.4756,15.233,15.233,0,0,1,2.0166.7275,3.599,3.599,0,0,1,1.3408,1.0723,2.9557,2.9557,0,0,1,.5537,1.8691,3.1993,3.1993,0,0,1-.5967,1.93,3.7416,3.7416,0,0,1-1.6445,1.2544,6.24,6.24,0,0,1-2.3965.4326A7.5239,7.5239,0,0,1,64.37,32.646a7.836,7.836,0,0,1-2.3535-1.41l.9688-1.9727a7.069,7.069,0,0,0,2.06,1.332,5.4715,5.4715,0,0,0,2.1279.4854,2.7039,2.7039,0,0,0,1.5234-.3721,1.2245,1.2245,0,0,0,.2158-1.8691,2.49,2.49,0,0,0-.8564-.5449q-.5186-.208-1.4189-.4678a16.8679,16.8679,0,0,1-2.0078-.709,3.4941,3.4941,0,0,1-1.332-1.0479,2.8848,2.8848,0,0,1-.5537-1.8428,3.0894,3.0894,0,0,1,.5625-1.8428,3.6207,3.6207,0,0,1,1.5918-1.22,6.0908,6.0908,0,0,1,2.38-.4326,8.0507,8.0507,0,0,1,2.3271.3457,7.8622,7.8622,0,0,1,2.0508.9346l-.9346,2.0244A8.7379,8.7379,0,0,0,68.8086,23.1553Z"></path><path d="M73.9746,20.9229h2.3193V33.0356H73.9746Z"></path><path d="M87.4893,27.0137h2.0254v4.6035a8.1,8.1,0,0,1-2.25,1.15,7.8531,7.8531,0,0,1-2.5439.4414,6.4565,6.4565,0,0,1-3.2451-.83,6.1878,6.1878,0,0,1-2.31-2.2583,6.0676,6.0676,0,0,1-.8486-3.1582,5.8851,5.8851,0,0,1,.8652-3.1406,6.2376,6.2376,0,0,1,2.3623-2.2324,6.7726,6.7726,0,0,1,3.3145-.8223,7.3272,7.3272,0,0,1,2.5605.4678,6.8019,6.8019,0,0,1,2.1807,1.28l-1.3154,1.7129a4.9839,4.9839,0,0,0-1.6006-1.0205,4.88,4.88,0,0,0-1.8252-.3633,4.1848,4.1848,0,0,0-2.1025.5449,4.01,4.01,0,0,0-1.5146,1.4971,4.1736,4.1736,0,0,0,.0088,4.17,4.1626,4.1626,0,0,0,1.5146,1.5059,4.118,4.118,0,0,0,2.11.5537,4.6619,4.6619,0,0,0,1.3066-.1992,5.7593,5.7593,0,0,0,1.3066-.5625Z"></path><path d="M100.6416,20.9229h2.249V33.0356h-2.1973l-6.23-8.34v8.34H92.1963V20.9229h2.1973l6.248,8.3584Z"></path><path d="M47.2549,53.8013,46.1826,51.24H40.2637L39.19,53.8013H36.7852L42.0986,41.688h2.4053l5.2432,12.1133Zm-6.16-4.5518h4.2568L43.24,44.1626Z"></path><path d="M65.0283,41.688h2.4053L63.332,53.8013H60.9268l-2.7686-9.1895-2.8213,9.1895h-2.37L48.8818,41.688H51.374l2.8555,9.6045,2.8379-9.6045h2.2842l2.8555,9.6387Z"></path><path d="M77.0371,53.8013,75.9648,51.24H70.0459l-1.0732,2.5615H66.5674L71.8809,41.688h2.4053l5.2432,12.1133ZM70.877,49.25h4.2568l-2.1113-5.0869Z"></path><path d="M88.58,53.8013l-2.0947-3.582a3.7937,3.7937,0,0,1-.4326.0176H83.3193v3.5645H81V41.688h5.0527a5.45,5.45,0,0,1,3.6348,1.09,3.8245,3.8245,0,0,1,1.28,3.08,4.5567,4.5567,0,0,1-.6143,2.4229,3.7684,3.7684,0,0,1-1.791,1.5059l2.665,4.0146Zm-5.2607-5.6064h2.7334a3.0847,3.0847,0,0,0,2.0078-.5713,2.0738,2.0738,0,0,0,.6924-1.6963,2.0009,2.0009,0,0,0-.6924-1.6611,3.1544,3.1544,0,0,0-2.0078-.5537H83.3193Z"></path><path d="M101.8008,42.4575a5.6611,5.6611,0,0,1,2.25,2.1543,6.074,6.074,0,0,1,.8135,3.1328,5.9712,5.9712,0,0,1-.8223,3.123,5.7659,5.7659,0,0,1-2.2754,2.1553,6.8992,6.8992,0,0,1-3.3057.7783H93.5117V41.688h5.0361A6.7841,6.7841,0,0,1,101.8008,42.4575Zm-1.2021,8.791a3.6232,3.6232,0,0,0,1.3926-1.4189,4.4775,4.4775,0,0,0-.0176-4.1533,3.6717,3.6717,0,0,0-1.4277-1.4365,4.0816,4.0816,0,0,0-2.0332-.51H95.8311v8.0293H98.6A3.9468,3.9468,0,0,0,100.5986,51.2485Z"></path><rect y="16.5478" width="10.6411" height="38.5826"></rect><rect x="16.8597" y="16.5478" width="10.6412" height="38.5826"></rect><rect x="0.0112" y="1.6291" width="27.4897" height="9.2601"></rect></svg>