<svg xmlns="http://www.w3.org/2000/svg" width="77.0602" height="78" viewBox="0 0 77.0602 78"><path d="M37.6918,22.6648a2.5193,2.5193,0,0,0-1.9311.79,3.23,3.23,0,0,0,0,4.1078,2.5186,2.5186,0,0,0,1.9311.79,2.4772,2.4772,0,0,0,1.8961-.79,3.23,3.23,0,0,0,0-4.1078A2.4778,2.4778,0,0,0,37.6918,22.6648Z"></path><path d="M27.2117,43.5552a2.4191,2.4191,0,0,0-1.6765.6057,2.6735,2.6735,0,0,0-.834,1.6588h4.9154a2.278,2.278,0,0,0-.6847-1.65A2.4011,2.4011,0,0,0,27.2117,43.5552Z"></path><path d="M26.6675,28.3527a2.4772,2.4772,0,0,0,1.8961-.79,3.23,3.23,0,0,0,0-4.1078,2.4779,2.4779,0,0,0-1.8961-.79,2.5194,2.5194,0,0,0-1.9311.79,3.23,3.23,0,0,0,0,4.1078A2.5188,2.5188,0,0,0,26.6675,28.3527Z"></path><path d="M15.0988,27.9138a2.3438,2.3438,0,0,0,1.7995-.7461,3.06,3.06,0,0,0,0-3.88,2.3453,2.3453,0,0,0-1.7995-.7461,2.3315,2.3315,0,0,0-1.7992.7549,2.99,2.99,0,0,0,0,3.871A2.3429,2.3429,0,0,0,15.0988,27.9138Z"></path><path d="M15.3973,43.713a2.4842,2.4842,0,0,0-1.9135.7989,3.1957,3.1957,0,0,0,0,4.1254,2.484,2.484,0,0,0,1.9135.7987,2.512,2.512,0,0,0,1.9222-.7987,3.2244,3.2244,0,0,0,0-4.1254A2.5122,2.5122,0,0,0,15.3973,43.713Z"></path><path d="M50.6382,27.5714a3.2245,3.2245,0,0,0,0-4.1254,2.5122,2.5122,0,0,0-1.9222-.7988,2.4841,2.4841,0,0,0-1.9134.7988,3.1957,3.1957,0,0,0,0,4.1254,2.484,2.484,0,0,0,1.9134.7987A2.512,2.512,0,0,0,50.6382,27.5714Z"></path><path d="M51.0508,43.6077a2.3314,2.3314,0,0,0-1.7992.7548,2.99,2.99,0,0,0,0,3.871,2.5427,2.5427,0,0,0,3.5987,0,3.06,3.06,0,0,0,0-3.88A2.3452,2.3452,0,0,0,51.0508,43.6077Z"></path><path d="M0,0V71.4217H77.06V0ZM10.9559,22.849A3.8632,3.8632,0,0,1,12.43,21.2779a4.189,4.189,0,0,1,2.1769-.5616,3.8214,3.8214,0,0,1,1.7467.3861,3.2241,3.2241,0,0,1,1.2376,1.0884V20.7864h2.2822V29.283a4.3744,4.3744,0,0,1-.6057,2.326,3.9812,3.9812,0,0,1-1.72,1.5273,5.9188,5.9188,0,0,1-2.5894.5353,6.8953,6.8953,0,0,1-3.9674-1.2463l.9129-1.65a4.8314,4.8314,0,0,0,2.9317.9831,2.9547,2.9547,0,0,0,2.01-.65,2.2288,2.2288,0,0,0,.7461-1.7731V28.23a3.12,3.12,0,0,1-1.2289,1.0972,3.8739,3.8739,0,0,1-1.7554.3774,4.1359,4.1359,0,0,1-2.1769-.5706,3.8921,3.8921,0,0,1-1.4746-1.5973,5.1033,5.1033,0,0,1-.5268-2.3613A4.9582,4.9582,0,0,1,10.9559,22.849Zm9.3919,28.3951H18.0656v-1.51a3.3914,3.3914,0,0,1-1.3078,1.2025,3.9812,3.9812,0,0,1-1.852.4125,4.4661,4.4661,0,0,1-2.3437-.6057,4.13,4.13,0,0,1-1.5712-1.7029,5.4483,5.4483,0,0,1-.5619-2.5189,5.3731,5.3731,0,0,1,.5532-2.4841,4.0418,4.0418,0,0,1,1.5622-1.6765,4.45,4.45,0,0,1,2.3086-.597,4.0028,4.0028,0,0,1,1.8783.4215,3.5738,3.5738,0,0,1,1.3342,1.2112V38.2183h2.2822Zm1.3516-25.7706a4.8775,4.8775,0,0,1,.6233-2.4841,4.3046,4.3046,0,0,1,1.7467-1.6765,5.4585,5.4585,0,0,1,2.5981-.5967,5.37,5.37,0,0,1,2.5717.5967,4.321,4.321,0,0,1,1.7379,1.6765A4.8816,4.8816,0,0,1,31.6,25.4735a4.9642,4.9642,0,0,1-.6232,2.51,4.3007,4.3007,0,0,1-1.7379,1.6852,5.3643,5.3643,0,0,1-2.5717.597,5.4531,5.4531,0,0,1-2.5981-.597,4.2845,4.2845,0,0,1-1.7467-1.6852A4.96,4.96,0,0,1,21.6994,25.4735ZM31.6882,47.347H24.754a2.6159,2.6159,0,0,0,2.686,2.1418,3.5718,3.5718,0,0,0,1.378-.2721,3.3721,3.3721,0,0,0,1.15-.7812l1.2289,1.2814a4.7523,4.7523,0,0,1-1.7118,1.1937,5.757,5.757,0,0,1-2.2381.4215,5.2216,5.2216,0,0,1-2.5366-.597,4.1684,4.1684,0,0,1-1.6942-1.6765,5.4494,5.4494,0,0,1,.0087-4.9769,4.2861,4.2861,0,0,1,1.6941-1.6939,5.0023,5.0023,0,0,1,2.4751-.6057,4.2737,4.2737,0,0,1,3.3793,1.2814,5.2556,5.2556,0,0,1,1.1323,3.5989Q31.7056,47.1191,31.6882,47.347Zm7.4433,3.2476a4.5148,4.5148,0,0,1-2.6509.7374,6.7287,6.7287,0,0,1-2.1241-.3423,5.0014,5.0014,0,0,1-1.7557-.9744l.79-1.5975a4.623,4.623,0,0,0,1.51.8514,5.048,5.048,0,0,0,1.6677.3072,2.0012,2.0012,0,0,0,1.0093-.2193.7145.7145,0,0,0,.3775-.6585.7953.7953,0,0,0-.4389-.7371,7.7694,7.7694,0,0,0-1.4218-.5442,12.0665,12.0665,0,0,1-1.545-.553,2.7955,2.7955,0,0,1-1.0357-.825,2.26,2.26,0,0,1-.4389-1.4485,2.4464,2.4464,0,0,1,1.01-2.1154,4.224,4.224,0,0,1,2.5366-.7285,6.524,6.524,0,0,1,1.8345.2634,5.702,5.702,0,0,1,1.6063.7372l-.8251,1.65a6.7669,6.7669,0,0,0-1.4133-.6318,4.5265,4.5265,0,0,0-1.3429-.2283,1.8108,1.8108,0,0,0-.9216.2019.6735.6735,0,0,0-.3424.6232.7384.7384,0,0,0,.43.6759,6.9073,6.9073,0,0,0,1.36.5,13.1267,13.1267,0,0,1,1.6152.5881,3.0441,3.0441,0,0,1,1.0972.86,2.3029,2.3029,0,0,1,.465,1.501A2.4171,2.4171,0,0,1,39.1315,50.5947Zm1.132-20.9255a5.3644,5.3644,0,0,1-2.5718.597,5.4531,5.4531,0,0,1-2.5981-.597A4.2846,4.2846,0,0,1,33.347,27.984a4.96,4.96,0,0,1-.6233-2.51,4.8775,4.8775,0,0,1,.6233-2.4841,4.3047,4.3047,0,0,1,1.7467-1.6765,5.4585,5.4585,0,0,1,2.5981-.5967,5.37,5.37,0,0,1,2.5718.5967,4.321,4.321,0,0,1,1.7379,1.6765,4.8816,4.8816,0,0,1,.6232,2.4841,4.9642,4.9642,0,0,1-.6232,2.51A4.3007,4.3007,0,0,1,40.2635,29.6692Zm4.152,21.575H42.1334V41.8523h2.2822Zm-.2283-11.0947a1.3141,1.3141,0,0,1-1.861,0,1.3429,1.3429,0,0,1-.3685-.9655,1.3669,1.3669,0,0,1,.3685-.9831,1.3141,1.3141,0,0,1,1.861,0,1.367,1.367,0,0,1,.3687.9831A1.3431,1.3431,0,0,1,44.1873,40.1495ZM44.31,27.975a5.4478,5.4478,0,0,1-.5619-2.5189,5.3737,5.3737,0,0,1,.5531-2.4841,4.0424,4.0424,0,0,1,1.5622-1.6765,4.45,4.45,0,0,1,2.3086-.597A4.0029,4.0029,0,0,1,50.05,21.12a3.5733,3.5733,0,0,1,1.3341,1.2112V17.1524h2.2822V30.1783H51.3843v-1.51a3.3907,3.3907,0,0,1-1.3078,1.2025,3.9809,3.9809,0,0,1-1.852.4125,4.4659,4.4659,0,0,1-2.3437-.6057A4.13,4.13,0,0,1,44.31,27.975ZM55.8257,50.3489a4.3744,4.3744,0,0,1-.6057,2.326,3.9811,3.9811,0,0,1-1.72,1.5273,5.919,5.919,0,0,1-2.5894.5353,6.8952,6.8952,0,0,1-3.9674-1.2463l.9129-1.65a4.8312,4.8312,0,0,0,2.9317.9831,2.9547,2.9547,0,0,0,2.01-.65,2.2288,2.2288,0,0,0,.7461-1.7731V49.2956a3.12,3.12,0,0,1-1.2289,1.0972,3.874,3.874,0,0,1-1.7554.3774A4.1363,4.1363,0,0,1,48.3825,50.2a3.8923,3.8923,0,0,1-1.4746-1.5974,5.1032,5.1032,0,0,1-.5268-2.3613,4.958,4.958,0,0,1,.5268-2.326,3.8628,3.8628,0,0,1,1.4746-1.5712,4.1889,4.1889,0,0,1,2.1769-.5616,3.8214,3.8214,0,0,1,1.7467.3861,3.2241,3.2241,0,0,1,1.2376,1.0884V41.8523h2.2822Zm11.8144.8953h-2.3V46.048a2.1188,2.1188,0,0,0-.5619-1.5537,2.047,2.047,0,0,0-1.5273-.57,2.3148,2.3148,0,0,0-1.7992.7723,2.8318,2.8318,0,0,0-.6583,1.9311v4.6169H58.5117V41.8523h2.2822v1.7554a3.5579,3.5579,0,0,1,3.37-1.8433,3.3536,3.3536,0,0,1,2.5456.9744,3.6676,3.6676,0,0,1,.93,2.6419Z"></path><rect class="cls-1" y="75.1807" width="77.0602" height="2.8193"></rect></svg>