<svg xmlns="http://www.w3.org/2000/svg" width="91.2588" height="72.556" viewBox="0 0 91.2588 72.556"><path d="M23.4907,25.9048a3.4127,3.4127,0,0,1,1.1079,2.7207,3.675,3.675,0,0,1-1.1079,2.8506,4.455,4.455,0,0,1-3.126,1.0166H18.0259v3.1489H15.9775v-10.7h4.3872A4.6176,4.6176,0,0,1,23.4907,25.9048Zm-1.4521,4.28a1.8189,1.8189,0,0,0,.6187-1.498,1.7566,1.7566,0,0,0-.6187-1.4673,2.8193,2.8193,0,0,0-1.7808-.4893H18.0259v3.959h2.2319A2.7574,2.7574,0,0,0,22.0386,30.1846Z"></path><path d="M32.99,35.6416l-1.85-3.1641a3.4066,3.4066,0,0,1-.3823.0151h-2.415v3.1489H26.2949v-10.7h4.4634a4.81,4.81,0,0,1,3.21.9629A3.3785,3.3785,0,0,1,35.1,28.6255a4.0256,4.0256,0,0,1-.5425,2.14,3.3259,3.3259,0,0,1-1.5825,1.33l2.354,3.5464Zm-4.647-4.9526h2.415a2.7243,2.7243,0,0,0,1.7734-.5044,1.8307,1.8307,0,0,0,.6113-1.498,1.7676,1.7676,0,0,0-.6113-1.4673,2.7852,2.7852,0,0,0-1.7734-.4893h-2.415Z"></path><path d="M45.104,25.5225A5.4741,5.4741,0,0,1,47.16,33.0659a5.4374,5.4374,0,0,1-2.0562,1.9946,6.0793,6.0793,0,0,1-5.793,0,5.4409,5.4409,0,0,1-2.0562-1.9946,5.4163,5.4163,0,0,1,2.0562-7.5435,6.1994,6.1994,0,0,1,5.793,0ZM40.4194,27.12a3.6609,3.6609,0,0,0-1.3223,5.0059,3.6883,3.6883,0,0,0,1.33,1.33,3.5087,3.5087,0,0,0,1.8115.4893,3.44,3.44,0,0,0,1.7881-.4893,3.5912,3.5912,0,0,0,1.3071-1.33,3.6589,3.6589,0,0,0,.4814-1.85,3.616,3.616,0,0,0-.4814-1.8418A3.55,3.55,0,0,0,44.0264,27.12a3.4842,3.4842,0,0,0-1.7881-.4819A3.5938,3.5938,0,0,0,40.4194,27.12Z"></path><path d="M57.0352,25.6221a4.9944,4.9944,0,0,1,1.9863,1.9028,5.3644,5.3644,0,0,1,.7188,2.7666,5.2723,5.2723,0,0,1-.7266,2.7593,5.1023,5.1023,0,0,1-2.01,1.9033,6.0928,6.0928,0,0,1-2.92.6875H49.7124v-10.7H54.16A5.9929,5.9929,0,0,1,57.0352,25.6221Zm-1.0625,7.7651a3.22,3.22,0,0,0,1.23-1.2534,3.9553,3.9553,0,0,0-.0156-3.6689,3.2556,3.2556,0,0,0-1.2617-1.2686,3.6025,3.6025,0,0,0-1.7949-.4507H51.7617v7.0923H54.207A3.4927,3.4927,0,0,0,55.9727,33.3872Z"></path><path d="M64.0967,33.2266a2.6,2.6,0,0,0,1.9258.7183,2.5264,2.5264,0,0,0,1.9033-.7183,2.74,2.74,0,0,0,.6953-1.9873V24.9419h2.0479v6.2974a4.9639,4.9639,0,0,1-.5654,2.4229,3.8368,3.8368,0,0,1-1.6123,1.582,5.2345,5.2345,0,0,1-2.4687.5508,5.3584,5.3584,0,0,1-2.499-.5508,3.8087,3.8087,0,0,1-1.6279-1.582,4.9639,4.9639,0,0,1-.5654-2.4229V24.9419h2.0479v6.2974A2.6834,2.6834,0,0,0,64.0967,33.2266Z"></path><path d="M79.4961,27.0054a3.6317,3.6317,0,0,0-3.3857.1069,3.4412,3.4412,0,0,0-1.2988,1.3066,3.7593,3.7593,0,0,0,0,3.6533A3.4976,3.4976,0,0,0,76.11,33.3872a3.55,3.55,0,0,0,1.8193.4814,3.8216,3.8216,0,0,0,1.5361-.3364A4.407,4.407,0,0,0,80.834,32.6l1.207,1.3452a6.3081,6.3081,0,0,1-1.9561,1.353,5.5184,5.5184,0,0,1-2.2627.4971,5.5947,5.5947,0,0,1-2.8271-.7344,5.3611,5.3611,0,0,1-2.0176-1.9946,5.4457,5.4457,0,0,1-.7344-2.79,5.325,5.325,0,0,1,.749-2.7822,5.3786,5.3786,0,0,1,2.041-1.9717,5.9244,5.9244,0,0,1,5.1133-.26,5.5191,5.5191,0,0,1,1.88,1.2686l-1.1924,1.498A4.0325,4.0325,0,0,0,79.4961,27.0054Z"></path><path d="M82.53,24.9419h8.7285v1.8188h-3.332v8.8809H85.8623V26.7607H82.53Z"></path><path d="M23.2993,43.9648a4.9947,4.9947,0,0,1,1.9873,1.9033,5.3581,5.3581,0,0,1,.7183,2.7666,5.2761,5.2761,0,0,1-.7261,2.7588,5.0992,5.0992,0,0,1-2.01,1.9033,6.0928,6.0928,0,0,1-2.92.6875H15.9775v-10.7h4.4482A5.9888,5.9888,0,0,1,23.2993,43.9648Zm-1.062,7.7646a3.196,3.196,0,0,0,1.23-1.2529,3.9591,3.9591,0,0,0-.0156-3.6689,3.25,3.25,0,0,0-1.2607-1.2686,3.602,3.602,0,0,0-1.7964-.4512H18.0259v7.0928h2.4458A3.4893,3.4893,0,0,0,22.2373,51.7295Z"></path><path d="M27.7935,43.2842h7.8418v1.7891H29.8418v2.6436h5.1973v1.7891H29.8418v2.69h5.9766v1.7881H27.7935Z"></path><path d="M42.9336,45.2559a5.1236,5.1236,0,0,0-1.521-.2744,2.1375,2.1375,0,0,0-1.1616.2744.8631.8631,0,0,0-.4277.7646,1.0045,1.0045,0,0,0,.2979.7412,2.3124,2.3124,0,0,0,.749.4893,11.8348,11.8348,0,0,0,1.23.4209,13.4527,13.4527,0,0,1,1.7808.6416,3.18,3.18,0,0,1,1.1846.9473,2.61,2.61,0,0,1,.4893,1.6514,2.82,2.82,0,0,1-.5273,1.7041,3.3049,3.3049,0,0,1-1.4521,1.1084,5.5036,5.5036,0,0,1-2.1172.3818,6.6675,6.6675,0,0,1-2.4458-.4658,6.9455,6.9455,0,0,1-2.0786-1.2461l.856-1.7422a6.2685,6.2685,0,0,0,1.8188,1.1768,4.842,4.842,0,0,0,1.88.4277,2.3916,2.3916,0,0,0,1.3452-.3281,1.0829,1.0829,0,0,0,.1909-1.6514,2.2188,2.2188,0,0,0-.7568-.4814q-.4585-.1831-1.2534-.4121a14.9224,14.9224,0,0,1-1.7729-.627,3.0763,3.0763,0,0,1-1.1768-.9248,2.5467,2.5467,0,0,1-.4893-1.6279,2.73,2.73,0,0,1,.4966-1.6279A3.1972,3.1972,0,0,1,39.479,43.498a5.4071,5.4071,0,0,1,2.1021-.3818,7.1252,7.1252,0,0,1,2.0557.3057,6.9823,6.9823,0,0,1,1.8115.8252l-.8257,1.7891A7.7266,7.7266,0,0,0,42.9336,45.2559Z"></path><path d="M47.4961,43.2842h2.0483v10.7H47.4961Z"></path><path d="M59.4336,48.665h1.7891V52.73a7.146,7.146,0,0,1-1.9863,1.0166,6.9685,6.9685,0,0,1-2.248.3906,5.6941,5.6941,0,0,1-2.8652-.7344,5.4728,5.4728,0,0,1-2.041-1.9941,5.3556,5.3556,0,0,1-.75-2.79,5.2021,5.2021,0,0,1,.7656-2.7744,5.52,5.52,0,0,1,2.0859-1.9717,5.9762,5.9762,0,0,1,2.9277-.7266,6.4717,6.4717,0,0,1,2.2617.4131A6.0285,6.0285,0,0,1,61.2988,44.69l-1.1621,1.5137a4.4015,4.4015,0,0,0-1.4141-.9023,4.3116,4.3116,0,0,0-1.6113-.32,3.6892,3.6892,0,0,0-1.8574.4814,3.5353,3.5353,0,0,0-1.3379,1.3223,3.6922,3.6922,0,0,0,.0078,3.6836,3.6688,3.6688,0,0,0,3.2031,1.8193,4.1239,4.1239,0,0,0,1.1523-.1758,5.1456,5.1456,0,0,0,1.1543-.4971Z"></path><path d="M71.0518,43.2842h1.9863v10.7H71.0967l-5.502-7.3672v7.3672H63.5918v-10.7h1.9414l5.5186,7.3828Z"></path><path d="M24.3237,72.3271l-1.269-2.8428H17.124l-1.2534,2.8428H14.74l4.8149-10.6846h1.1006L25.47,72.3271Zm-6.7871-3.791h5.1055l-2.5679-5.7773Z"></path><path d="M39.3184,61.627h1.1162l-3.623,10.7H35.7109L32.7,62.957l-3.0415,9.37H28.5728l-3.6074-10.7h1.1465l3.042,9.584L32.18,61.627h1.07l3.042,9.584Z"></path><path d="M49.499,72.3271,48.23,69.4844H42.2993l-1.2534,2.8428H39.915L44.73,61.6426h1.1006l4.8149,10.6846Zm-6.7871-3.791h5.1055L45.25,62.7588Z"></path><path d="M59.45,72.3271l-2.3086-3.4854q-.4893.0308-.749.0313H53.458v3.4541H52.4033V61.6426h3.9893a4.6616,4.6616,0,0,1,3.0957.9248,3.244,3.244,0,0,1,1.0928,2.6211,3.6764,3.6764,0,0,1-.6426,2.2168,3.3488,3.3488,0,0,1-1.834,1.2383l2.5684,3.6836Zm-3.0576-4.4023a3.5573,3.5573,0,0,0,2.3545-.6953,2.4827,2.4827,0,0,0,.8252-2.01,2.3785,2.3785,0,0,0-.8252-1.957,3.6435,3.6435,0,0,0-2.3545-.6729H53.458v5.335Z"></path><path d="M70.5391,62.3457a5.2971,5.2971,0,0,1-.0078,9.2783,5.7032,5.7032,0,0,1-2.8125.7031H63.4541V61.6426H67.749A5.6338,5.6338,0,0,1,70.5391,62.3457Zm-.543,8.4531a4.3972,4.3972,0,0,0-.0225-7.6279,4.4451,4.4451,0,0,0-2.24-.5811H64.5088v8.79h3.2705A4.3693,4.3693,0,0,0,69.9961,70.7988Z"></path><rect width="5.0718" height="72.556"></rect></svg>