<svg xmlns="http://www.w3.org/2000/svg" width="79.6251" height="79.6249" viewBox="0 0 79.6251 79.6249"><path d="M12.4061,17.0657h1.4317v7.479H12.4061Z"></path><path d="M20.8893,17.0657h1.3891v7.479h-1.357l-3.8465-5.15v5.15H15.6755v-7.479h1.3568l3.8571,5.1606Z"></path><path d="M23.2827,17.0657h6.1008v1.2715H27.054v6.2075H25.6119V18.3372H23.2827Z"></path><path d="M30.3985,17.0657h5.4808v1.25H31.83v1.8483h3.6325v1.25H31.83v1.8806h4.1773v1.25h-5.609Z"></path><path d="M42.1406,24.5447l-1.2927-2.2117a2.4044,2.4044,0,0,1-.2672.0106H38.8926v2.201H37.4609v-7.479h3.12a3.364,3.364,0,0,1,2.2437.673,2.3624,2.3624,0,0,1,.7908,1.9018,2.8146,2.8146,0,0,1-.3794,1.496,2.322,2.322,0,0,1-1.1061.9293l1.6457,2.4789Zm-3.248-3.4617h1.6881A1.9045,1.9045,0,0,0,41.82,20.73a1.2792,1.2792,0,0,0,.4274-1.0469,1.2358,1.2358,0,0,0-.4274-1.0257,1.9479,1.9479,0,0,0-1.2394-.3419H38.8926Z"></path><path d="M44.897,20.8052h2.6815v.9616H44.897Z"></path><path d="M17.62,29.887H19.009v7.479H17.652l-3.8465-5.15v5.15H12.4061V29.887h1.3568L17.62,35.0476Z"></path><path d="M26.3815,37.366l-.6626-1.5813H22.0647l-.6626,1.5813h-1.485l3.28-7.479h1.485L27.92,37.366Zm-3.8041-2.81h2.6287l-1.3035-3.1412Z"></path><path d="M27.2354,29.887h6.101v1.2715H31.0069V37.366H29.5649V31.1585H27.2354Z"></path><path d="M34.3515,29.887h1.4317v7.479H34.3515Z"></path><path d="M43.0436,30.293A3.8265,3.8265,0,0,1,44.48,35.5657,3.8075,3.8075,0,0,1,43.0436,36.96a4.2543,4.2543,0,0,1-4.05,0,3.8041,3.8041,0,0,1-1.4369-1.3942A3.7863,3.7863,0,0,1,38.994,30.293a4.3334,4.3334,0,0,1,4.05,0Zm-3.2748,1.1164a2.5595,2.5595,0,0,0-.9242,3.4992,2.58,2.58,0,0,0,.9293.93A2.4551,2.4551,0,0,0,41.04,36.18a2.4065,2.4065,0,0,0,1.25-.3419,2.5137,2.5137,0,0,0,.9138-.93,2.5552,2.5552,0,0,0,.3365-1.2927,2.5268,2.5268,0,0,0-.3365-1.2875,2.4849,2.4849,0,0,0-.9138-.919,2.4375,2.4375,0,0,0-1.25-.3365A2.5145,2.5145,0,0,0,39.7687,31.4094Z"></path><path d="M51.4783,29.887h1.3893v7.479H51.5108l-3.8465-5.15v5.15h-1.4V29.887h1.3568l3.8568,5.1606Z"></path><path d="M60.24,37.366l-.6626-1.5813H55.9228l-.6621,1.5813H53.7752l3.28-7.479h1.485l3.2371,7.479Zm-3.8036-2.81h2.6283l-1.3035-3.1412Z"></path><path d="M62.6864,29.887h1.4317v6.1861h3.2268V37.366H62.6864Z"></path><path d="M17.5238,43.1838a3.4923,3.4923,0,0,1,1.3891,1.33,3.7486,3.7486,0,0,1,.5021,1.9341,3.69,3.69,0,0,1-.5076,1.9284,3.5584,3.5584,0,0,1-1.4051,1.33,4.2538,4.2538,0,0,1-2.0406.4807H12.4061v-7.479H15.515A4.1826,4.1826,0,0,1,17.5238,43.1838Zm-.7425,5.4271a2.2413,2.2413,0,0,0,.86-.8756,2.7656,2.7656,0,0,0-.0108-2.5646,2.2716,2.2716,0,0,0-.8813-.8869,2.5228,2.5228,0,0,0-1.2555-.3148h-1.656v4.9577h1.7093A2.4391,2.4391,0,0,0,16.7813,48.6109Z"></path><path d="M20.665,42.7078h5.4808v1.25H22.0967v1.8483h3.6325v1.25H22.0967v1.88H26.274v1.25H20.665Z"></path><path d="M31.2478,44.0862a3.5658,3.5658,0,0,0-1.0632-.1923,1.4893,1.4893,0,0,0-.812.1923.6029.6029,0,0,0-.2993.5339.7041.7041,0,0,0,.2083.5184,1.6277,1.6277,0,0,0,.5236.3421,8.3774,8.3774,0,0,0,.86.2936,9.3419,9.3419,0,0,1,1.2451.4491,2.2229,2.2229,0,0,1,.828.6617A1.8279,1.8279,0,0,1,33.08,48.04a1.9727,1.9727,0,0,1-.3685,1.1914,2.3077,2.3077,0,0,1-1.0151.7748,3.8457,3.8457,0,0,1-1.48.2667,4.6463,4.6463,0,0,1-1.7093-.3261,4.8373,4.8373,0,0,1-1.4534-.8709l.5985-1.2178a4.39,4.39,0,0,0,1.2715.8228,3.3748,3.3748,0,0,0,1.3144.2988,1.6732,1.6732,0,0,0,.94-.229.7572.7572,0,0,0,.1334-1.1546,1.5627,1.5627,0,0,0-.5288-.3365q-.3209-.1272-.8761-.2884a10.251,10.251,0,0,1-1.2394-.4383,2.1492,2.1492,0,0,1-.8228-.6461,1.7814,1.7814,0,0,1-.3417-1.1381,1.9076,1.9076,0,0,1,.3469-1.1376,2.2353,2.2353,0,0,1,.9831-.7531,3.7671,3.7671,0,0,1,1.4694-.2672,4.97,4.97,0,0,1,1.4369.2135,4.8865,4.8865,0,0,1,1.2663.5768l-.5773,1.2507A5.3834,5.3834,0,0,0,31.2478,44.0862Z"></path><path d="M34.4368,42.7078h1.4317v7.479H34.4368Z"></path><path d="M42.7815,46.4685h1.25v2.8427a4.9945,4.9945,0,0,1-1.3888.7107,4.88,4.88,0,0,1-1.5707.2724,3.9822,3.9822,0,0,1-2.0034-.5137,3.8163,3.8163,0,0,1-1.4261-1.394,3.7442,3.7442,0,0,1-.5236-1.95,3.634,3.634,0,0,1,.5339-1.9388,3.8579,3.8579,0,0,1,1.4586-1.3785,4.1849,4.1849,0,0,1,2.0462-.5076,4.5272,4.5272,0,0,1,1.5811.2884,4.2113,4.2113,0,0,1,1.3464.7908l-.812,1.0575a3.0855,3.0855,0,0,0-.9882-.63,3.019,3.019,0,0,0-1.1273-.2243,2.5854,2.5854,0,0,0-1.2983.3365A2.5559,2.5559,0,0,0,38.93,47.73a2.5636,2.5636,0,0,0,2.238,1.2715,2.8822,2.8822,0,0,0,.8068-.1225,3.5769,3.5769,0,0,0,.8068-.3478Z"></path><path d="M50.901,42.7078H52.29v7.479H50.9335l-3.8465-5.15v5.15h-1.4v-7.479h1.3568l3.8568,5.16Z"></path><path d="M17.94,63.008l-.6624-1.5806h-3.654l-.6626,1.5806h-1.485l3.28-7.479h1.4852l3.2374,7.479Zm-3.8036-2.81h2.6285l-1.3035-3.1415Z"></path><path d="M28.9131,55.529h1.4854L27.866,63.008H26.3815l-1.71-5.6731L22.93,63.008H21.4664l-2.5215-7.479h1.5384l1.763,5.93,1.7524-5.93h1.41L27.1713,61.48Z"></path><path d="M36.3285,63.008l-.6626-1.5806H32.0117L31.35,63.008H29.8641l3.28-7.479H34.63l3.2371,7.479Zm-3.8036-2.81h2.6283L33.85,57.0569Z"></path><path d="M43.4545,63.008l-1.2927-2.2112a2.5435,2.5435,0,0,1-.2672.01H40.2065V63.008H38.7748V55.529h3.12a3.364,3.364,0,0,1,2.2437.673,2.3623,2.3623,0,0,1,.7908,1.902A2.8126,2.8126,0,0,1,44.55,59.6a2.3181,2.3181,0,0,1-1.1061.9293l1.6457,2.4789Zm-3.248-3.4619h1.6881a1.9018,1.9018,0,0,0,1.2394-.3525,1.2784,1.2784,0,0,0,.4274-1.0472,1.2359,1.2359,0,0,0-.4274-1.0255,1.9465,1.9465,0,0,0-1.2394-.3421H40.2065Z"></path><path d="M51.6173,56.005a3.4883,3.4883,0,0,1,1.3893,1.33,3.75,3.75,0,0,1,.5019,1.9341,3.6874,3.6874,0,0,1-.5076,1.9284,3.5562,3.5562,0,0,1-1.4048,1.33,4.2544,4.2544,0,0,1-2.0406.4807H46.5V55.529h3.1089A4.175,4.175,0,0,1,51.6173,56.005Zm-.7422,5.4271a2.2428,2.2428,0,0,0,.86-.8756,2.7674,2.7674,0,0,0-.0108-2.5646,2.2716,2.2716,0,0,0-.8813-.8869,2.5185,2.5185,0,0,0-1.2555-.3148h-1.656v4.9577h1.7093A2.44,2.44,0,0,0,50.875,61.4321Z"></path><path d="M58.2791,56.908a3.54,3.54,0,0,0-1.0632-.1932,1.4809,1.4809,0,0,0-.812.1932.6027.6027,0,0,0-.2993.5335.7034.7034,0,0,0,.2083.5184,1.6434,1.6434,0,0,0,.5236.3421,8.5967,8.5967,0,0,0,.86.2941,9.2821,9.2821,0,0,1,1.2451.4486,2.2229,2.2229,0,0,1,.828.6617,1.8279,1.8279,0,0,1,.3417,1.1546,1.9727,1.9727,0,0,1-.3685,1.1914,2.3077,2.3077,0,0,1-1.0151.7748,3.8457,3.8457,0,0,1-1.48.2667,4.6463,4.6463,0,0,1-1.7093-.3261,4.8373,4.8373,0,0,1-1.4534-.8709l.5985-1.2178a4.39,4.39,0,0,0,1.2715.8228,3.3748,3.3748,0,0,0,1.3144.2988,1.6732,1.6732,0,0,0,.94-.229.7572.7572,0,0,0,.1334-1.1546,1.5627,1.5627,0,0,0-.5288-.3365q-.3209-.1272-.8761-.2884a10.251,10.251,0,0,1-1.2394-.4383,2.1524,2.1524,0,0,1-.8228-.6456,1.7828,1.7828,0,0,1-.3417-1.1386,1.9066,1.9066,0,0,1,.3469-1.1376,2.2353,2.2353,0,0,1,.9831-.7531,3.767,3.767,0,0,1,1.4694-.2677,4.97,4.97,0,0,1,1.4369.214,4.8865,4.8865,0,0,1,1.2663.5768L59.46,57.4527A5.3813,5.3813,0,0,0,58.2791,56.908Z"></path><path d="M79.6251,79.6249H0V0H79.6251ZM4.3432,75.2817H75.2819V4.3432H4.3432Z"></path></svg>